<svg id="Capa_1" enable-background="new 0 0 512 512" height="512" viewBox="0 0 512 512" width="512" xmlns="http://www.w3.org/2000/svg" xmlns:xlink="http://www.w3.org/1999/xlink"><linearGradient id="SVGID_1_" gradientUnits="userSpaceOnUse" x1="256" x2="256" y1="512" y2="0"><stop offset="0" stop-color="#fd5900"/><stop offset="1" stop-color="#ffde00"/></linearGradient><g><g><path d="m256 120c-8.284 0-15 6.716-15 15s6.716 15 15 15 15-6.716 15-15-6.716-15-15-15zm0-60c-57.897 0-105 47.103-105 105 0 40.505 23.716 77.236 60 94.491v117.509c0 3.978 1.581 7.793 4.394 10.606l30 30c2.928 2.93 6.767 4.394 10.606 4.394s7.678-1.464 10.606-4.394l30-30c2.813-2.813 4.394-6.628 4.394-10.606v-117.509c36.284-17.254 60-53.986 60-94.491 0-57.897-47.103-105-105-105zm24.976 175.355c-5.98 2.126-9.976 7.786-9.976 14.133v121.298l-15 15-15-15v-121.297c0-6.347-3.995-12.007-9.976-14.133-29.92-10.638-50.024-38.911-50.024-70.356 0-41.355 33.645-75 75-75s75 33.645 75 75c0 31.445-20.104 59.718-50.024 70.355zm155.024-175.355c-24.813 0-45-20.187-45-45 0-8.284-6.716-15-15-15h-240c-8.284 0-15 6.716-15 15 0 24.813-20.187 45-45 45-8.284 0-15 6.716-15 15v170.263c0 118.403 75.238 227.628 190.256 265.967 1.54.513 3.142.77 4.744.77s3.204-.257 4.744-.77c115.043-38.348 190.256-147.59 190.256-265.967v-170.263c0-8.284-6.716-15-15-15zm-15 185.263c0 106.526-66.091 200.674-165 235.873-98.909-35.199-165-129.347-165-235.873v-156.77c29.342-5.981 52.512-29.151 58.493-58.493h213.014c5.981 29.342 29.151 52.512 58.493 58.493z" fill="url(#SVGID_1_)"/></g></g></svg>